
<svg aria-hidden="true" xmlns="http://www.w3.org/2000/svg" overflow="hidden">
<defs>
<symbol id="icon-adapt" viewBox="0 0 32 32">
<path d="M2.3 31.36h26.78c.14-3.06-.08-8.12-1.96-10.54l-.07-.08-4.1-2.06c.08-.3.13-.58.15-.78.02-.24-.02-.48-.1-.68a5.72 5.72 0 00-2.87-2.82l-.03-.02c.24-.48.4-1 .48-1.53.44-.12.8-.48.9-.95l.49-1.95c.02-.1.04-.2.04-.32 0-.4-.19-.77-.48-1.01 1.35-3.07-.91-5.97-1.04-6.12A6.6 6.6 0 0014.75.4h.03c-4.46.93-6.19 4.34-5.21 8.36-.29.32-.41.77-.3 1.2l.47 1.95c.12.47.48.82.92.95.15.99.56 1.86 1.16 2.56v1.54c-6.41 3.28-2.36 1.18-7.5 3.78 0 .05-2.4 2.6-2.05 10.16l.03.47zm25.85-.97h-4.4v-1.85l2.9-6.68c1.47 2.43 1.53 7.05 1.5 8.53zm-6.01-12.57c-.17 1.95-1.24 1.36-1.9 2.87a2.2 2.2 0 01-.54-2.02v.02c.24-1.35-.57-1.75-.37-3.16l.03-.03.22-.28c1.75.76 2.59 2.17 2.56 2.6zm-9.36-1.54a4.92 4.92 0 005.59.07h-.02c.11 1.12.55 1.35.4 2.16-.03.13-.05.28-.06.44l-3 3.4-3.84-4.33.93-.48v-1.26zm-1.2-4.14V6.96a4.23 4.23 0 011.86-1.85l.02-.01a26.86 26.86 0 016.2 4.78v2.5a4.05 4.05 0 01-8.08-.25zm-.6 6.35l4.72 5.31 3.16-3.57c.08.21.17.4.28.6l-3.45 4.32-5.15-6.45.44-.21zm9.65-7.13v-1.5l.36-.41c.02.76.1-.14-.36 1.91zM14.96 1.34c.2 0 2.77-.4 4.8 1.8.08.1 1.74 2.24 1.07 4.56-.23-1.04-.62-2.36-1.25-3l-.68.68c.61.63 1.02 2.54 1.17 3.53a27.67 27.67 0 00-6.55-4.88c-.18.11-1.74.4-2.86 2.6l-.05.1v1.6h-.15c-.72-3.45.66-6.2 4.5-7zm-4.6 8l.24.98v1.04l-.4-1.64c-.06-.24.12-.34.16-.38zm-.7 9.81l6.03 7.55 4.08-5.12c.45.4.66.47 1.6.95l-.31-1.07c-.08-.28.24-.72.43-.92.43-.24.79-.56 1.05-.98l3.34 1.68-3.1 7.1v2.05H8.6v-2.05l-3.1-7.1 4.16-2.09zm-4.94 2.72l2.92 6.67v1.86H3.22c-.01-1.47.04-6.1 1.5-8.53z"/>
</symbol>
<symbol id="icon-finance" viewBox="0 0 32 32">
<path d="M2.87 13.8c0 .34-.53.34-.53 0a13.4 13.4 0 0126.82 0c0 .34-.53.34-.53 0 0-5-8.22-5.01-8.22 0 0 .34-.55.34-.55 0 0-5-8.23-5-8.23 0 0 .34-.55.34-.55 0 0-4.99-8.2-5.02-8.2 0zm8.27-1.95c.14-2.87.6-5.46 1.25-7.43.53-1.56 1.2-2.76 1.95-3.43A12.9 12.9 0 003.08 11.45c1.95-2.8 6.44-2.57 8.06.4zm8.68-.13c-.1-2.58-.53-5.02-1.27-7.33l.06.2c-1.64-4.9-4.08-4.9-5.72 0a27.09 27.09 0 00-1.22 7.08v.05c1.76-2.98 6.4-2.98 8.15 0zm8.59-.26A12.9 12.9 0 0017.23 1h-.06c.76.66 1.42 1.85 1.94 3.42.7 2.2 1.16 4.75 1.25 7.39v.05c1.63-3 6.14-3.18 8.06-.4zm-14.42 8.47V17.2c-.5.34-.88.84-.88 1.45 0 .6.4 1 .88 1.28zm.53.85c-.94-.43-1.93-.94-1.93-2.13 0-1.22.94-1.84 1.93-2.3v4.43zm2.99 3.26v2.75c.5-.32.89-.83.89-1.45 0-.6-.4-1.01-.9-1.3zm-.53-.85c.94.43 1.95.96 1.95 2.15 0 1.23-.94 1.84-1.95 2.3V23.2z"/>
<path d="M17.5 14.11c2.18.5 4.4 2.12 4.4 4.54 0 2.07-3.51 2-3.51 0 0-.62-.4-1.12-.88-1.45v3.87c2 .66 4.39 1.84 4.39 4.27 0 2.42-2.22 4.04-4.4 4.54 0 2.3-3.5 2.3-3.5 0a6.46 6.46 0 01-3.1-1.63 4.07 4.07 0 01-1.3-2.9c0-2.05 3.51-2.05 3.51 0 0 .6.4 1.1.88 1.43v-3.87c-1.99-.64-4.4-1.85-4.4-4.26 0-2.42 2.23-4.05 4.4-4.55.01-2.3 3.5-2.3 3.52 0zm-2.98 0v.43c-2.06.4-4.4 1.73-4.4 4.1 0 2.3 2.56 3.32 4.4 3.88v5.12c-1-.45-1.93-1.06-1.93-2.3 0-1.35-2.45-1.35-2.45 0 0 .95.42 1.84 1.14 2.54a6.03 6.03 0 003.2 1.56h.04v.43c0 1.62 2.46 1.62 2.46 0v-.42c2.07-.4 4.4-1.73 4.4-4.1 0-2.32-2.56-3.3-4.4-3.89v-5.1c1 .44 1.94 1.05 1.94 2.3 0 1.3 2.45 1.36 2.45 0 0-2.39-2.33-3.7-4.39-4.12v-.42c0-1.62-2.46-1.62-2.46 0z"/>
</symbol>
<symbol id="icon-sovr" viewBox="0 0 32 32">
<path d="M29.45.26H14.1c-1 0-1.8.81-1.8 1.81v6.36L.84 13.23a.37.37 0 00-.04.66l1.45.87v9.3c-.74.17-1.3.83-1.3 1.62v.9c0 .2.17.38.37.38h2.62c.2 0 .36-.18.36-.39v-.89c0-.8-.54-1.46-1.28-1.63h-.01V15.2l1.14.68c-.03.27 0-.45-.01 4.33 0 1.57 4.03 2.42 8.13 2.46v7.26c0 1 .81 1.8 1.82 1.8h15.36c1 0 1.82-.8 1.82-1.8V2.07c-.01-1-.82-1.8-1.82-1.81zM3.57 25.68v.51H1.7v-.51a.93.93 0 011.86 0zm25.88 5.31H14.1c-.58 0-1.06-.47-1.06-1.06V27.4h17.5v2.52c0 .58-.49 1.06-1.07 1.06zm1.07-4.32h-17.5v-4c2-.02 8.13-.45 8.13-2.46v-4.33l3.33-2a.37.37 0 00-.04-.66L13 8.42V5.33h17.51v21.35zm-17.87-8.92c-2.06 0-6.04.27-7.76 1.39.01-3.45-.12-3.22.3-3.5 1.07-.8 4.14-1.36 7.46-1.36 1.45 0 7.77.4 7.77 1.74v3.13c-1.75-1.15-5.7-1.4-7.77-1.4zm.38-15.68c0-.6.47-1.07 1.07-1.07h15.36c.6 0 1.07.48 1.07 1.07V4.6H13.01V2.07zm-.38 7.01l10.82 4.56-2.69 1.6c-1.42-1.41-6.14-1.69-8.14-1.69-2 0-6.72.28-8.14 1.69l-2.69-1.6 10.83-4.55zM4.88 20.22c0-.6 2.67-1.73 7.76-1.73 5.1 0 7.77 1.13 7.77 1.73s-2.67 1.72-7.77 1.72c-5.09 0-7.76-1.12-7.76-1.72z"/><path d="M21.77 27.98h-.1a1.23 1.23 0 10.1 2.46 1.23 1.23 0 000-2.46zm0 1.72a.49.49 0 010-.98.49.49 0 010 .98zm1.42-27.28h-2.85v.74h2.84v-.74z"/>
</symbol>
<symbol id="journal" viewBox="0 0 46 48">
<path d="M45.2261 7.44103C45.2261 7.43999 45.225 7.43895 45.225 7.43739C45.2151 7.41391 45.2031 7.39095 45.189 7.36956C45.1875 7.36799 45.1864 7.36643 45.1854 7.36486C45.1708 7.34295 45.1541 7.32103 45.1348 7.30173L37.9259 0.0933838C37.9071 0.0746012 37.8868 0.0589521 37.8649 0.0443434C37.8607 0.0412129 37.8555 0.0385972 37.8513 0.0354667C37.8336 0.0245102 37.8158 0.0145973 37.797 0.00624947C37.7913 0.00364077 37.7861 0.00103182 37.7809 -0.000533395C37.7339 -0.019316 37.6833 -0.0292283 37.6327 -0.0307936C37.6296 -0.0307936 37.6269 -0.031311 37.6249 -0.031311H5.86764C5.63233 -0.031311 5.44189 0.159646 5.44189 0.394951V44.3609C5.44189 44.389 5.44451 44.4162 5.45025 44.4443C5.45285 44.4563 5.45703 44.4673 5.46068 44.4788C5.46538 44.4939 5.46903 44.509 5.47477 44.5236C5.48051 44.5367 5.48781 44.5492 5.49511 44.5623C5.50138 44.5732 5.50659 44.5857 5.51389 44.5967C5.5285 44.6181 5.5452 44.6384 5.56294 44.6567C5.56451 44.6583 5.56503 44.6603 5.56711 44.6614L8.8139 47.9076C8.98034 48.0741 9.24955 48.0741 9.41651 47.9076L12.3633 44.9624L15.309 47.9076C15.392 47.9911 15.5015 48.0323 15.6106 48.0323C15.7191 48.0323 15.8282 47.9911 15.9116 47.9076L18.8569 44.9629L21.8036 47.9076C21.9701 48.0741 22.2398 48.0741 22.4062 47.9076L25.3515 44.9629L28.2967 47.9076C28.4631 48.0741 28.7329 48.0741 28.8988 47.9076L31.8466 44.9624L34.7918 47.9076C34.8748 47.9911 34.9843 48.0323 35.0928 48.0323C35.2019 48.0323 35.3109 47.9911 35.3944 47.9076L38.3396 44.9629L41.2869 47.9076C41.4529 48.0741 41.7231 48.0741 41.889 47.9076L45.1358 44.6614C45.1421 44.6551 45.1468 44.6478 45.1525 44.641C45.1645 44.627 45.1775 44.6129 45.188 44.5972C45.1979 44.5831 45.2047 44.5669 45.2125 44.5518C45.2177 44.5419 45.2235 44.5336 45.2266 44.5236C45.2355 44.5043 45.2396 44.4845 45.2449 44.4647C45.2469 44.4579 45.2501 44.4516 45.2516 44.4449C45.2574 44.4156 45.2605 44.3875 45.2605 44.3577V7.60382C45.2589 7.54799 45.248 7.49268 45.2261 7.44103ZM38.0501 1.42382L43.8038 7.17703H38.0501V1.42382ZM44.4064 44.1835L41.5864 47.0035L38.6391 44.0583C38.4732 43.8923 38.2035 43.8923 38.037 44.0583L35.0918 47.0035L32.1466 44.0583C31.9802 43.8923 31.7104 43.8923 31.544 44.0583L28.5967 47.0035L25.652 44.0598C25.652 44.0593 25.6515 44.0588 25.6515 44.0583C25.5685 43.9753 25.4595 43.9336 25.3499 43.9336C25.2409 43.9336 25.1318 43.9753 25.0489 44.0583C25.0483 44.0588 25.0483 44.0588 25.0483 44.0588L22.1036 47.0035L19.1569 44.0583C18.9904 43.8923 18.7212 43.8923 18.5542 44.0583L15.609 47.0035L12.6633 44.0583C12.4969 43.8923 12.2276 43.8923 12.0607 44.0583L9.1139 47.0035L6.29337 44.1835V0.820169H37.1981V7.60278C37.1981 7.83808 37.389 8.02904 37.6243 8.02904H44.4059L44.4064 44.1835Z" />
<path d="M9.47069 4.85112H23.4251C23.6604 4.85112 23.8514 4.66016 23.8514 4.42486C23.8514 4.18955 23.6604 3.9986 23.4251 3.9986H9.47069C9.23486 3.9986 9.04443 4.18955 9.04443 4.42486C9.04443 4.66016 9.23486 4.85112 9.47069 4.85112Z" />
<path d="M9.47069 7.48643H31.8486C32.0839 7.48643 32.2749 7.29548 32.2749 7.06017C32.2749 6.82487 32.0839 6.63391 31.8486 6.63391H9.47069C9.23486 6.63391 9.04443 6.82487 9.04443 7.06017C9.04443 7.29548 9.23486 7.48643 9.47069 7.48643Z" />
<path d="M9.04443 9.85198V23.6499C9.04443 23.8852 9.23486 24.0762 9.47069 24.0762H41.229C41.4643 24.0762 41.6547 23.8852 41.6547 23.6499V9.85198C41.6547 9.61668 41.4643 9.42572 41.229 9.42572H9.47069C9.23486 9.42572 9.04443 9.61668 9.04443 9.85198ZM18.4623 10.2782H40.8022V13.9456H18.4623V10.2782ZM18.4623 14.7981H40.8022V18.4638H18.4623V14.7981ZM18.4623 19.3158H40.8022V23.2236H18.4623V19.3158ZM9.89695 10.2782H17.6103V13.9456H9.89695V10.2782ZM9.89695 14.7981H17.6103V18.4638H9.89695V14.7981ZM9.89695 19.3158H17.6103V23.2236H9.89695V19.3158Z" />
<path d="M41.229 25.9936H9.47069C9.23486 25.9936 9.04443 26.1845 9.04443 26.4198V40.2172C9.04443 40.4525 9.23486 40.6429 9.47069 40.6429C9.70599 40.6429 9.89643 40.4525 9.89643 40.2172V35.8836H17.6098V40.2172C17.6098 40.4525 17.8008 40.6429 18.0356 40.6429C18.2714 40.6429 18.4618 40.4525 18.4618 40.2172V35.8836H40.8016V40.2172C40.8016 40.4525 40.9926 40.6429 41.2279 40.6429C41.4632 40.6429 41.6536 40.4525 41.6536 40.2172V26.4198C41.6547 26.1845 41.4643 25.9936 41.229 25.9936ZM17.6103 35.0311H9.89695V31.3659H17.6103V35.0311ZM17.6103 30.5129H9.89695V26.8466H17.6103V30.5129ZM40.8022 35.0311H18.4623V31.3659H40.8022V35.0311ZM40.8022 30.5129H18.4623V26.8466H40.8022V30.5129Z" />
<path d="M3.42138 -0.0318298C3.18607 -0.0318298 2.99512 0.159127 2.99512 0.394432V44.3603C2.99512 44.5951 3.18607 44.7861 3.42138 44.7861C3.65668 44.7861 3.84763 44.5951 3.84763 44.3603V0.394432C3.84763 0.159127 3.65668 -0.0318298 3.42138 -0.0318298Z" />
<path d="M1.07763 -0.0318298C0.842324 -0.0318298 0.651367 0.159127 0.651367 0.394432V44.3603C0.651367 44.5951 0.842324 44.7861 1.07763 44.7861C1.31293 44.7861 1.50336 44.5951 1.50336 44.3603V0.394432C1.50336 0.159127 1.31293 -0.0318298 1.07763 -0.0318298Z" />
</symbol>
<symbol id="book" viewBox="0 0 66 48">
<path d="M29.3999 6.9118H8.94043V8.44372H29.3999V6.9118Z" />
<path d="M29.4 12.6236H12.0044V14.1555H29.4V12.6236Z" />
<path d="M29.3999 18.3358H8.94043V19.8678H29.3999V18.3358Z" />
<path d="M29.4 24.0476H12.0044V25.5795H29.4V24.0476Z" />
<path d="M29.3999 29.7594H8.94043V31.2913H29.3999V29.7594Z" />
<path d="M29.4 35.4716H12.0044V37.0036H29.4V35.4716Z" />
<path d="M57.4848 6.9118H37.0254V8.44372H57.4848V6.9118Z" />
<path d="M54.421 12.6236H37.0254V14.1555H54.421V12.6236Z" />
<path d="M57.4848 18.3358H37.0254V19.8678H57.4848V18.3358Z" />
<path d="M54.421 24.0476H37.0254V25.5795H54.421V24.0476Z" />
<path d="M57.4848 29.7594H37.0254V31.2913H57.4848V29.7594Z" />
<path d="M54.421 35.4716H37.0254V37.0036H54.421V35.4716Z" />
<path d="M64.8722 5.16795H62.0637V0.949704C62.0637 0.526831 61.7206 0.183746 61.2978 0.183746H38.4008C36.1664 0.183746 34.2297 1.39171 33.2133 3.19995C32.1969 1.39153 30.259 0.183746 28.0245 0.183746H5.12754C4.70466 0.183746 4.36158 0.526831 4.36158 0.949704V5.16795H1.55307C1.13019 5.16795 0.787109 5.51104 0.787109 5.93391V47.0503C0.787109 47.4731 1.13019 47.8162 1.55307 47.8162C9.24331 47.8162 57.1545 47.8162 64.8722 47.8162C65.2951 47.8162 65.6382 47.4731 65.6382 47.0503V5.93391C65.6382 5.51104 65.2951 5.16795 64.8722 5.16795ZM38.4008 1.71566H60.5318C60.5318 8.57484 60.5318 26.6435 60.5318 42.7408H36.7667C35.7132 42.7408 34.6599 43.185 33.9786 43.761V6.12789C33.9786 3.68263 35.9363 1.71566 38.4008 1.71566ZM5.89349 1.71566H28.0245C30.4196 1.71566 32.3579 3.57969 32.4372 5.95934C32.4382 5.99226 32.4412 6.09548 32.4467 6.12789V6.13388V6.13537V43.758C31.7672 43.1843 30.7252 42.7408 29.6686 42.7408H5.89349C5.89349 26.6489 5.89349 8.57265 5.89349 1.71566ZM2.31902 6.69987H4.36158V43.5067C4.36158 43.9296 4.70466 44.2727 5.12754 44.2727H29.6686C30.8362 44.2727 31.9646 45.0386 32.3258 46.2843H2.31902V6.69987ZM64.1063 46.2843H34.1C34.4636 45.0326 35.5807 44.2727 36.7667 44.2727H61.2978C61.7206 44.2727 62.0637 43.9296 62.0637 43.5067V6.69987H64.1063V46.2843Z" />
</symbol>
<symbol id="society" viewBox="0 0 49 48">
<path d="M2.98975 18.837V23.084C2.98975 23.3121 3.0944 23.5271 3.2738 23.6688C6.17636 25.9532 9.81838 27.212 13.5294 27.212C14.6401 27.212 15.7517 27.0959 16.8386 26.8764C19.1553 27.9004 21.6212 28.4243 24.1736 28.4243C26.7342 28.4243 29.2007 27.9001 31.5092 26.8764C36.1455 27.8127 41.0857 26.8071 45.0728 23.6688C45.2522 23.5271 45.3568 23.3121 45.3568 23.084V18.837C45.3568 18.2137 45.0474 17.6457 44.4946 17.2963L38.6938 14.0329C39.9627 12.4227 40.9082 10.1302 41.0726 8.16368C41.5541 4.77893 38.7954 1.19418 34.8244 1.19418C33.1546 1.19418 31.5673 1.88152 30.4026 3.03435C30.3623 3.07429 30.3163 3.10798 30.2771 3.14904C30.2412 3.18653 30.2122 3.23026 30.1773 3.26872C30.154 3.29423 30.1338 3.32242 30.111 3.3483C28.9761 1.27875 26.7946 0 24.2245 0C23.9748 0 23.7296 0.0171075 23.4867 0.0418018C23.4719 0.0409092 23.4594 0.0333968 23.4443 0.0333968C23.3064 0.0333968 23.0143 0.0696943 22.8582 0.114769C22.8351 0.121463 22.8185 0.137752 22.7966 0.14638C20.8774 0.534497 19.2516 1.69751 18.2772 3.38029C17.1053 2.01377 15.3826 1.19485 13.5091 1.19485C7.64692 1.19485 5.04614 8.11266 9.67349 14.066L3.81931 17.316C3.29991 17.6449 2.98975 18.2137 2.98975 18.837ZM31.4947 25.2419C31.3689 25.3033 31.2444 25.3689 31.1177 25.4266L31.1176 25.4267C31.1167 25.4271 31.1158 25.4277 31.1148 25.428C28.9364 26.429 26.6012 26.9367 24.1736 26.9367C21.7534 26.9367 19.4181 26.429 17.2296 25.4266C16.1647 24.9421 15.1347 24.3262 14.162 23.5954V19.2902C14.162 19.1435 14.2332 19.0135 14.3153 18.9589L21.1284 15.1723C21.976 15.8919 23.0589 16.4196 24.1809 16.4196C25.2617 16.4196 26.4291 15.8842 27.2595 15.1547L33.9898 18.9343C34.114 19.0142 34.1852 19.1435 34.1852 19.2902V23.5947C33.3284 24.2385 32.4259 24.7869 31.4947 25.2419ZM43.7312 18.5725C43.819 18.6277 43.8692 18.7243 43.8692 18.837V22.718C40.9164 24.9339 37.3635 25.9397 33.7639 25.6873C34.3177 25.3417 34.9208 24.9129 35.3881 24.5469C35.5675 24.406 35.6728 24.1903 35.6728 23.9615V19.2902C35.6728 18.6379 35.3452 18.0372 34.7576 17.6603L31.1824 15.6511L32.0518 15.1695C33.1063 16.0294 34.0118 16.2852 34.8244 16.2852C35.8181 16.2852 36.8644 15.7977 37.6413 15.147L43.7312 18.5725ZM34.8244 2.68178C36.895 2.68178 38.7139 4.03491 39.3562 5.89524C38.1068 5.74699 36.8851 5.13031 36.0011 4.1824C35.8413 4.01103 35.614 3.92237 35.3779 3.94997C35.1455 3.97466 34.9385 4.10758 34.8186 4.30811C33.9702 5.72959 32.5792 6.67824 30.9971 6.94772C30.9972 6.94623 30.9969 6.94489 30.9969 6.9434C31.004 6.61977 30.9852 6.29183 30.9481 5.96389C30.9443 5.93027 30.9412 5.89724 30.937 5.864C30.8891 5.49142 30.7768 5.02588 30.7546 4.9509C31.5992 3.5977 33.1682 2.68178 34.8244 2.68178ZM30.8342 8.46537C32.7135 8.25949 34.4131 7.31516 35.5805 5.82257C36.7312 6.76623 38.1909 7.33806 39.6334 7.40716C39.6222 10.095 37.4267 14.7976 34.8244 14.7976C32.8186 14.7976 31.1061 11.9291 30.4662 9.94033C30.6288 9.42882 30.7472 8.93679 30.8342 8.46537ZM30.9852 14.0593L29.6564 14.7951L28.3145 14.0414C28.812 13.4216 29.2682 12.702 29.6589 11.9213C30.0344 12.7109 30.4845 13.4364 30.9852 14.0593ZM28.98 9.69704C28.2627 11.8369 26.4227 14.932 24.1809 14.932C21.5676 14.932 19.342 10.6358 18.918 7.88833C19.0311 7.86029 22.5623 8.07785 24.9923 4.88701C26.2258 5.91881 27.8898 6.6017 29.5083 6.66946C29.5275 7.6393 29.2922 8.77881 28.98 9.69704ZM24.2245 1.48761C28.394 1.48761 29.1877 5.07631 29.253 5.15076C27.7411 4.99724 26.3616 4.25656 25.4085 3.2374C25.2486 3.06603 25.0162 2.98027 24.7845 3.00571C24.5513 3.03115 24.3443 3.16481 24.2245 3.36675C23.3986 4.76406 22.1033 5.7496 20.6035 6.16843C20.0245 6.33021 19.3992 6.404 18.854 6.39871C19.0581 3.66598 21.2483 1.48761 24.2245 1.48761ZM18.6917 11.907C19.0775 12.6791 19.536 13.4166 20.0608 14.0645L18.7477 14.7944L17.3874 14.0298C17.9033 13.3723 18.3412 12.6366 18.6917 11.907ZM13.5091 2.68245C15.1959 2.68245 16.7416 3.53849 17.6029 4.95313C17.5597 5.10308 17.4433 5.69999 17.4279 5.77466C16.3928 5.52698 15.4419 4.9756 14.6967 4.18099C14.5362 4.01029 14.3095 3.92527 14.0727 3.94997C13.8403 3.9754 13.6333 4.10907 13.5142 4.31026C12.5193 5.98925 10.6931 7.03206 8.74843 7.03258C8.98525 4.59231 11.0254 2.68245 13.5091 2.68245ZM8.8138 8.5164C10.9513 8.49557 12.9693 7.48809 14.2776 5.82257C15.1713 6.55834 16.2328 7.04277 17.3608 7.26406C17.4045 8.12635 17.6292 9.17414 17.8862 9.94688C17.4755 11.2064 16.6875 12.7079 15.7101 13.705C15.7039 13.7112 15.6957 13.714 15.6897 13.7204C15.078 14.3647 14.2079 14.7983 13.5236 14.7983C11.1326 14.7983 9.2624 11.0362 8.8138 8.5164ZM4.47735 18.837C4.47735 18.7243 4.52749 18.6285 4.57836 18.5943L10.7522 15.1682C11.1225 15.4766 11.2077 15.5118 11.2823 15.5663L11.282 15.5668C12.0086 16.0497 12.6745 16.2903 13.5832 16.2903C14.5508 16.2903 15.4316 15.8803 16.2068 15.249C16.2505 15.2148 16.2975 15.1818 16.339 15.147L17.2201 15.6424L13.5505 17.6835C13.0021 18.0372 12.6744 18.6379 12.6744 19.2902V23.9615C12.6744 24.1896 12.7791 24.4053 12.9592 24.5462C13.4343 24.9194 14.0503 25.3547 14.5834 25.6881C10.9319 25.9372 7.37923 24.8956 4.47735 22.718V18.837Z" />
<path d="M46.8879 31.1713C45.9727 30.5961 44.8461 30.5365 43.8771 31.0064L34.6979 35.4407C34.6659 33.7227 33.2638 32.3335 31.5375 32.3335L26.2743 32.3349C23.679 30.0788 20.3624 28.6973 17.3465 28.6247C14.3724 28.5542 11.7027 28.5344 10.4576 28.5288V27.0259H0V44.3012H10.4576V42.2324C13.3254 43.8777 20.8661 47.9999 24.4446 47.9999C24.5259 47.9999 24.6051 47.9977 24.6813 47.9933C30.9746 47.6403 45.8172 37.1958 46.7964 36.5022C47.7538 35.9465 48.3472 34.9179 48.3472 33.8088C48.3472 32.7301 47.8017 31.7444 46.8879 31.1713ZM8.96997 42.8135H1.48761V28.5135H8.96997V42.8135ZM46.0308 35.2266C46.0083 35.239 45.9858 35.2528 45.9647 35.268C45.8114 35.377 30.5439 46.1745 24.5985 46.5086C24.5397 46.5115 24.4801 46.513 24.4176 46.513C21.2789 46.513 13.6263 42.3842 10.4576 40.5116V30.0165C11.698 30.0221 14.3524 30.0419 17.3108 30.1123C20.0659 30.1783 23.1247 31.4938 25.4941 33.6308L25.7063 33.8225L31.5375 33.8211C32.4629 33.8211 33.2162 34.5736 33.2162 35.499C33.2162 36.4244 32.4637 37.1777 31.5383 37.1777H20.8251V38.6653H31.5383C32.565 38.6653 33.4699 38.1662 34.0486 37.4061L44.5244 32.3459C45.0386 32.0953 45.6124 32.1272 46.0976 32.4315C46.5822 32.7352 46.8596 33.2371 46.8596 33.8088C46.8596 34.3957 46.5421 34.9382 46.0308 35.2266Z"/>
<path d="M24.9173 18.2378H23.4297V19.6172H24.9173V18.2378Z" />
<path d="M24.9173 20.9885H23.4297V22.3679H24.9173V20.9885Z" />
<path d="M24.9173 23.7393H23.4297V25.1186H24.9173V23.7393Z" />
</symbol>
<symbol id="audio-book" viewBox="0 0 55 48">
<path d="M3.57164 44.1788H21.9165C22.8462 46.1068 24.7915 47.3524 26.9868 47.3524H28.1453C30.3428 47.3524 32.287 46.1074 33.2167 44.1788H51.5716C53.4623 44.1788 55.0002 42.6409 55.0002 40.7503V7.89311C55.0002 6.00249 53.4623 4.46454 51.5716 4.46454H49.7201V2.9333C49.7201 1.67269 48.6944 0.647583 47.4344 0.647583H7.69775C6.43771 0.647583 5.41204 1.67269 5.41204 2.9333V4.46454H3.57164C1.68101 4.46454 0.143066 6.00249 0.143066 7.89311V40.7503C0.143066 42.6409 1.68101 44.1788 3.57164 44.1788ZM47.4321 37.1275H28.7145V10.5698C33.0409 11.1357 36.3953 14.8373 36.3953 19.3156V20.3463L36.1241 20.2865C35.8295 20.2235 35.5203 20.2765 35.2636 20.4394C35.008 20.603 34.8272 20.8608 34.7625 21.1571L32.9433 29.4361C32.8082 30.0516 33.1978 30.6604 33.8138 30.796L37.7457 31.6627C37.9489 31.7056 38.1553 31.7279 38.3618 31.7279C39.7446 31.7279 40.9221 30.7821 41.2234 29.4255L42.2759 24.6375C42.623 23.0656 41.6263 21.5019 40.0493 21.1515L38.681 20.85V19.3156C38.681 13.5745 34.3052 8.83692 28.7145 8.26019V2.9333H47.4344L47.4321 37.1275ZM36.7491 22.7648L39.556 23.3831C39.9065 23.4612 40.1207 23.7949 40.0437 24.1454L38.9913 28.9322C38.9154 29.2782 38.5326 29.493 38.2301 29.4288L35.4198 28.8094L36.7491 22.7648ZM7.69775 2.9333H26.4288V8.2585C20.8325 8.82993 16.4511 13.5706 16.4511 19.3156V20.8493L15.0806 21.1521C14.3172 21.3217 13.6654 21.7765 13.2469 22.4327C12.8261 23.0907 12.6877 23.8742 12.8574 24.6353L13.9076 29.4177C14.1922 30.7564 15.3964 31.7279 16.7714 31.7279C16.9779 31.7279 17.1844 31.7056 17.3953 31.661L21.3105 30.796C21.9254 30.6599 22.315 30.0516 22.1799 29.4361L20.3607 21.1571C20.296 20.8608 20.1152 20.6024 19.8596 20.4394C19.6029 20.2765 19.2926 20.2229 18.998 20.2865L18.7368 20.3442V19.3156C18.7368 14.8335 22.0969 11.129 26.4288 10.5681V37.1275H7.69775V5.6074V2.9333ZM18.3741 22.7659L19.7045 28.81L16.9098 29.4272C16.5661 29.5047 16.2156 29.2776 16.1419 28.9355L15.0895 24.142C15.0515 23.9757 15.0817 23.8055 15.1721 23.6638C15.2636 23.5203 15.4076 23.421 15.5739 23.3836L18.3741 22.7659ZM2.42878 7.89311C2.42878 7.26309 2.94106 6.75026 3.57164 6.75026H5.41204V37.1275C5.41204 38.3881 6.43771 39.4132 7.69775 39.4132H47.4344C48.6944 39.4132 49.7201 38.3881 49.7201 37.1275V6.75026H51.5716C52.2022 6.75026 52.7145 7.26309 52.7145 7.89311V40.7503C52.7145 41.3803 52.2022 41.8931 51.5716 41.8931H32.4399C31.9377 41.8931 31.4946 42.2207 31.3473 42.7006C30.9132 44.1158 29.6263 45.0667 28.1453 45.0667H26.9868C25.5114 45.0667 24.2257 44.1197 23.7804 42.6872C23.6285 42.214 23.1888 41.8931 22.6922 41.8931H3.57164C2.94106 41.8931 2.42878 41.3803 2.42878 40.7503V7.89311Z" />
</symbol>
<symbol id="strip" viewBox="0 0 20 3">
<path d="M0 0.4H20V2.34H0V0.4Z" />
</symbol>
<symbol id="left-arrow" viewBox="0 0 20 16">
<path d="M26 7C26.5523 7 27 7.44772 27 8C27 8.55228 26.5523 9 26 9V7ZM0.292892 8.70711C-0.0976315 8.31658 -0.0976315 7.68342 0.292892 7.29289L6.65685 0.928932C7.04738 0.538408 7.68054 0.538408 8.07107 0.928932C8.46159 1.31946 8.46159 1.95262 8.07107 2.34315L2.41421 8L8.07107 13.6569C8.46159 14.0474 8.46159 14.6805 8.07107 15.0711C7.68054 15.4616 7.04738 15.4616 6.65685 15.0711L0.292892 8.70711ZM26 9H1V7H26V9Z"  />
</symbol>
<symbol id="right-arrow" viewBox="0 0 27 16" xmlns="http://www.w3.org/2000/svg">
<path d="M1 7C0.447715 7 0 7.44772 0 8C0 8.55228 0.447715 9 1 9V7ZM26.7071 8.70711C27.0976 8.31658 27.0976 7.68342 26.7071 7.29289L20.3431 0.928932C19.9526 0.538408 19.3195 0.538408 18.9289 0.928932C18.5384 1.31946 18.5384 1.95262 18.9289 2.34315L24.5858 8L18.9289 13.6569C18.5384 14.0474 18.5384 14.6805 18.9289 15.0711C19.3195 15.4616 19.9526 15.4616 20.3431 15.0711L26.7071 8.70711ZM1 9H26V7H1V9Z" />
</symbol>
<symbol id="check-list" viewBox="0 0 25 20" xmlns="http://www.w3.org/2000/svg">
<path d="M21.5357 0.946068C20.608 1.36111 19.7189 1.86789 18.8702 2.4331C17.1633 3.55612 15.6029 4.89335 14.1392 6.31946C12.6761 7.74907 11.314 9.27892 10.0261 10.8697C9.704 11.2674 8.26183 13.0386 8.26183 13.0386L2.26415 4.05099L0 10.327L8.11076 20C8.89836 18.4055 9.65634 16.8314 10.3998 15.4638C10.5845 15.116 10.778 14.7887 10.9629 14.4563C10.9629 14.4563 11.9147 12.7831 12.1651 12.3616C13.166 10.6758 14.2479 9.0337 15.4393 7.47374C16.6321 5.91664 17.9287 4.43011 19.3986 3.12332C20.13 2.46562 20.9085 1.8575 21.7427 1.32829C22.5751 0.798046 23.4596 0.333722 24.4057 0C23.4215 0.193628 22.4612 0.529888 21.5357 0.946068Z" />
</symbol>
<symbol id="fire-list" viewBox="0 0 22 30" xmlns="http://www.w3.org/2000/svg">
<path d="M20.5392 15.5558C20.2734 14.9604 19.9067 14.374 19.3705 13.6967C18.0184 11.9967 17.6059 8.20581 17.6013 8.16945C17.583 7.98763 17.4547 7.83763 17.2851 7.78309C17.1109 7.72854 16.923 7.77854 16.7992 7.9149C15.1859 9.71945 15.8642 12.5058 16.2309 13.6194C16.3317 13.924 16.4417 14.2831 16.5196 14.6467C17.1154 17.5876 15.965 18.9194 15.6946 19.1876C15.4334 19.2604 15.2546 19.224 15.0896 19.0467C14.5213 18.424 14.3334 16.3831 14.5992 13.724C14.6542 13.1831 14.6405 12.6967 14.5625 12.2422C14.0019 8.97386 11.9463 6.8774 11.4229 6.14218C9.98378 4.0149 9.83712 0.473994 9.83253 0.442176C9.82795 0.273994 9.7317 0.123994 9.58045 0.0512668C9.43378 -0.0214604 9.25503 -0.0123695 9.11753 0.083085C6.71587 1.7149 6.92212 5.64672 7.2567 7.84218C7.33462 8.35127 7.48587 8.86945 7.74712 9.524C8.67753 11.8649 7.56378 14.8876 7.55462 14.9149C7.54545 14.9422 7.53628 14.9649 7.5317 14.9922C7.38962 15.7376 7.15128 16.1831 6.88545 16.1831C6.85795 16.1831 6.83045 16.1785 6.79837 16.1694C6.47295 16.1013 6.30337 15.7558 6.29878 15.4558C6.28045 11.5785 2.3892 10.274 2.34795 10.2604C2.17378 10.2058 1.98128 10.2558 1.86212 10.3967C1.73837 10.5376 1.71545 10.7331 1.79795 10.8967C1.84378 10.9922 1.99045 11.4104 1.88962 12.8876C1.80253 14.2149 1.55962 15.5285 1.17003 16.7876C0.244201 19.8058 0.390868 22.6649 0.400034 22.8013C1.11196 30.5425 12.2452 31.899 18.8525 27.5376C19.5767 27.0604 20.1679 26.5149 20.6034 25.9149C23.0417 22.5513 21.6072 17.9831 20.5392 15.5558ZM3.60383 22.9513C3.61758 23.2013 3.42508 23.4149 3.173 23.4285H3.1455C2.90258 23.4285 2.70091 23.2422 2.68716 23.0013C2.64591 22.3376 2.65508 21.6422 2.7055 20.8876C2.72383 20.6376 2.94383 20.4513 3.19591 20.4649C3.448 20.483 3.6405 20.7012 3.62216 20.9512C3.5717 21.6695 3.56258 22.324 3.60383 22.9513ZM3.82837 18.924C3.80087 19.1558 3.60378 19.324 3.37462 19.324C3.35628 19.324 3.33795 19.324 3.31503 19.3195C3.06753 19.2876 2.88878 19.0649 2.91628 18.8149L3.13628 17.0604C3.16837 16.8149 3.39295 16.6376 3.64962 16.6649C3.9017 16.6967 4.08045 16.924 4.04837 17.174L3.82837 18.924Z" />
</symbol>
<symbol id="vk" viewBox="0 0 30 18" xmlns="http://www.w3.org/2000/svg">
<path d="M25.8193 11.3062C26.8144 12.2778 27.8647 13.1919 28.7573 14.2614C29.1516 14.7367 29.5248 15.2272 29.8104 15.7788C30.215 16.5629 29.8485 17.4257 29.1455 17.4725L24.775 17.4705C23.6477 17.5641 22.7485 17.1103 21.9924 16.3396C21.3873 15.7232 20.8269 15.0673 20.2451 14.4301C20.0065 14.1697 19.7569 13.9247 19.4586 13.731C18.862 13.3437 18.3441 13.4623 18.0032 14.0845C17.6559 14.7175 17.5771 15.4182 17.543 16.1236C17.4962 17.1527 17.1851 17.4233 16.1514 17.4704C13.9421 17.5746 11.8454 17.2404 9.89753 16.1259C8.18026 15.1434 6.84866 13.7563 5.68956 12.186C3.43294 9.12844 1.70472 5.76856 0.151512 2.31457C-0.198117 1.53639 0.0575867 1.11867 0.91622 1.10385C2.34198 1.07613 3.76757 1.07813 5.19503 1.10186C5.77452 1.11035 6.15813 1.4427 6.3819 1.99014C7.15329 3.88688 8.09718 5.69144 9.28194 7.36412C9.59747 7.80943 9.91921 8.2548 10.3773 8.56822C10.8841 8.91527 11.27 8.80025 11.5084 8.23564C11.6597 7.87764 11.726 7.49203 11.7601 7.10865C11.8731 5.78953 11.888 4.47264 11.6899 3.15814C11.5682 2.33777 11.1061 1.80668 10.2875 1.65147C9.86982 1.57231 9.93198 1.41686 10.1342 1.17844C10.4855 0.767227 10.8159 0.51123 11.4746 0.51123H16.4139C17.1915 0.664687 17.3642 1.01402 17.4707 1.79643L17.4749 7.28297C17.4664 7.58584 17.6262 8.48473 18.1717 8.68518C18.6084 8.82791 18.8962 8.47857 19.1582 8.20172C20.3408 6.94658 21.1849 5.46322 21.9389 3.92725C22.2735 3.25184 22.5613 2.55047 22.8401 1.84963C23.0467 1.32961 23.3709 1.07373 23.9567 1.08504L28.7105 1.08926C28.8515 1.08926 28.9941 1.09131 29.1306 1.11469C29.9317 1.25121 30.1512 1.5958 29.9038 2.37803C29.514 3.60527 28.7555 4.62803 28.0138 5.65547C27.2211 6.7524 26.3732 7.81184 25.587 8.91527C24.8647 9.92309 24.922 10.431 25.8193 11.3062Z" />
</symbol>
<symbol id="phone" viewBox="0 0 24 24" xmlns="http://www.w3.org/2000/svg">
<path d="M3.49259 0.00182175C3.10622 0.0201449 2.72684 0.18444 2.44862 0.490301L0.502737 2.62938C0.505458 2.62303 0.495118 2.62395 0.439985 2.70196C0.410595 2.74221 0.387756 2.78685 0.372316 2.83423C-0.419735 5.3572 0.11122 8.13254 1.40458 10.7722C2.698 13.4118 4.76108 15.9378 7.12967 18.0106C9.49825 20.0835 12.1707 21.7052 14.7188 22.5096C17.2669 23.314 19.7376 23.3033 21.5685 21.975C21.5884 21.9603 21.6071 21.944 21.6245 21.9264C21.6725 21.8784 21.6741 21.8723 21.6663 21.8796L21.6737 21.8703L23.6103 19.7405C24.1668 19.1287 24.1219 18.1671 23.51 17.6106L18.9157 13.4322C18.3039 12.8757 17.3424 12.9201 16.7859 13.5319L14.7071 15.8179C13.0197 15.3293 11.5771 14.501 10.1897 13.239C8.80206 11.9768 7.84072 10.6183 7.19488 8.9842L9.27302 6.69816C9.82952 6.08637 9.78524 5.12479 9.17335 4.56829L4.57904 0.389897C4.27316 0.111648 3.87958 -0.0165759 3.49317 0.00171102L3.49259 0.00182175ZM3.53627 0.939388C3.67859 0.933038 3.82339 0.982482 3.94168 1.09012L8.53599 5.26851C8.77267 5.48376 8.78875 5.82736 8.57351 6.06399L6.27631 8.58876C6.21857 8.65256 6.17934 8.73091 6.16286 8.81537C6.14638 8.89982 6.15328 8.9872 6.1828 9.06802C6.88 10.9706 8.00469 12.5315 9.55227 13.9392C11.0999 15.3468 12.7587 16.3194 14.7188 16.8337C14.8022 16.8556 14.8901 16.8542 14.9729 16.8297C15.0556 16.8052 15.1301 16.7585 15.1882 16.6946L17.4859 14.1692C17.7011 13.9327 18.0442 13.917 18.2808 14.1323L22.8757 18.3107C23.1124 18.526 23.1278 18.869 22.9126 19.1056L20.9919 21.2169C19.4894 22.2954 17.3728 22.3558 15.0024 21.6076C12.6227 20.8563 10.0393 19.3003 7.75282 17.2992C5.46632 15.2982 3.47653 12.8545 2.25351 10.3586C1.04309 7.8882 0.603968 5.39081 1.26977 3.18958L3.14617 1.1274C3.25378 1.00911 3.39389 0.94576 3.53621 0.939138L3.53627 0.939388Z" />
</symbol>
<symbol id="instagram-icon" width="40" height="40" viewBox="0 0 40 40" fill="none" xmlns="http://www.w3.org/2000/svg">
<g clip-path="url(#clip0)">
<path d="M39.3152 7.15454C38.9511 3.74329 36.257 1.04858 32.8455 0.684814C24.2902 -0.228271 15.7098 -0.228271 7.15485 0.684814C3.74329 1.04889 1.04889 3.74329 0.684814 7.15454C-0.228271 15.7095 -0.228271 24.2902 0.684814 32.8452C1.04889 36.2567 3.74329 38.9511 7.15454 39.3152C15.7095 40.2283 24.2902 40.2283 32.8455 39.3152C36.257 38.9511 38.9511 36.2567 39.3152 32.8452C40.2283 24.2902 40.2283 15.7098 39.3152 7.15454Z" fill="url(#paint0_radial)"/>
<path d="M37.1396 8.60117C36.8167 5.57413 34.426 3.18307 31.3987 2.85989C23.8071 2.04996 16.193 2.04996 8.60141 2.85989C5.57437 3.18307 3.18332 5.57413 2.86014 8.60117C2.0502 16.1927 2.0502 23.8069 2.86014 31.3981C3.18332 34.4254 5.57437 36.8165 8.60141 37.1394C16.193 37.9496 23.8071 37.9496 31.3983 37.1394C34.4257 36.8165 36.8167 34.4254 37.1396 31.3981C37.9499 23.8069 37.9499 16.1927 37.1396 8.60117Z" fill="url(#paint1_linear)"/>
<path d="M0.599365 32.0161C0.626831 32.2926 0.655212 32.5691 0.684814 32.8456C1.04889 36.2568 3.74329 38.9512 7.15485 39.3153C15.7098 40.2284 24.2905 40.2284 32.8455 39.3153C36.257 38.9512 38.9511 36.2568 39.3152 32.8456C39.3448 32.5691 39.3732 32.2926 39.4009 32.0161H0.599365Z" fill="url(#paint2_linear)"/>
<path d="M39.3152 32.8453C39.8059 28.2484 40.0323 23.6442 39.9957 19.0407L30.8527 9.89759C29.7104 8.59357 28.042 7.77967 26.0815 7.70917C22.0499 7.56391 18.0054 7.57123 13.9731 7.70978C10.6241 7.82514 8.28217 10.0761 7.68158 13.3845C7.57568 13.9686 7.51221 14.5604 7.42889 15.1487V24.8478C7.47498 25.1622 7.54272 25.475 7.56378 25.7911C7.69806 27.8035 8.52509 29.5271 9.84924 30.6932L19.1534 39.9971C23.7195 40.0291 28.2858 39.8021 32.8455 39.3153C36.257 38.9512 38.9511 36.2568 39.3152 32.8453Z" fill="url(#paint3_linear)"/>
<path d="M39.3152 32.8457C38.9514 36.2567 36.2564 38.9517 32.8455 39.3154C28.2864 39.8019 23.7192 40.0292 19.1537 39.9972L9.86359 30.707C10.9406 31.6497 12.3444 32.2238 13.9734 32.2851C18.0048 32.4365 22.0502 32.4325 26.0815 32.2872C29.7278 32.1554 32.3663 29.4567 32.4802 25.8105C32.6016 21.939 32.6016 18.0575 32.4802 14.186C32.4283 12.5039 31.8378 11.0238 30.8588 9.90381L39.996 19.0411C40.032 23.644 39.8056 28.2488 39.3152 32.8457Z" fill="url(#paint4_linear)"/>
<path d="M24.7198 15.6688C23.5486 14.3934 21.868 13.5933 20 13.5933C16.4618 13.5933 13.5931 16.4619 13.5931 20.0001C13.5931 21.8681 14.3933 23.5487 15.6686 24.72L30.4919 39.5433C31.2766 39.4749 32.0612 39.3989 32.8452 39.3153C36.2567 38.9512 38.9511 36.2568 39.3152 32.8453C39.3988 32.0613 39.4748 31.2767 39.5432 30.4921L24.7198 15.6688Z" fill="url(#paint5_linear)"/>
<path d="M39.9225 24.3089L27.9926 12.3793C27.7142 12.014 27.2757 11.7769 26.781 11.7769C25.9393 11.7769 25.2567 12.4592 25.2567 13.3012C25.2567 13.7959 25.4938 14.2344 25.8591 14.5128L39.7092 28.3632C39.8032 27.0121 39.8743 25.6605 39.9225 24.3089Z" fill="url(#paint6_linear)"/>
<path d="M7.42889 15.1487C7.51221 14.5604 7.57568 13.9686 7.68158 13.3845C8.28186 10.0761 10.6241 7.82514 13.9731 7.70978C18.0054 7.57123 22.0499 7.56391 26.0815 7.70917C29.7266 7.8404 32.3663 10.5394 32.4802 14.1856C32.6013 18.0574 32.6013 21.9386 32.4802 25.8104C32.3663 29.4566 29.7275 32.1553 26.0818 32.2868C22.0502 32.4324 18.0048 32.436 13.9734 32.2847C10.3278 32.1476 7.80762 29.4426 7.56378 25.7908C7.54272 25.475 7.47498 25.1619 7.42889 24.8475C7.42889 21.6145 7.42889 18.3815 7.42889 15.1487ZM20.0034 30.1259C21.8484 30.1259 23.6954 30.1811 25.538 30.113C28.4271 30.0059 30.2042 28.2817 30.2716 25.3953C30.3552 21.7988 30.3552 18.1975 30.2716 14.6007C30.2042 11.7149 28.4259 9.95038 25.538 9.88904C21.8726 9.81153 18.2031 9.81214 14.5377 9.88904C11.6718 9.94916 9.88953 11.678 9.81171 14.532C9.71283 18.174 9.71283 21.8223 9.81171 25.4643C9.88953 28.318 11.6718 30.0068 14.538 30.113C16.3574 30.1808 18.1815 30.1259 20.0034 30.1259Z" fill="url(#paint7_linear)"/>
<path d="M7.42889 15.1487C7.51221 14.5604 7.57568 13.9686 7.68158 13.3845C8.28186 10.0761 10.6241 7.82514 13.9731 7.70978C18.0054 7.57123 22.0499 7.56391 26.0815 7.70917C29.7266 7.8404 32.3663 10.5394 32.4802 14.1856C32.6013 18.0574 32.6013 21.9386 32.4802 25.8104C32.3663 29.4566 29.7275 32.1553 26.0818 32.2868C22.0502 32.4324 18.0048 32.436 13.9734 32.2847C10.3278 32.1476 7.80762 29.4426 7.56378 25.7908C7.54272 25.475 7.47498 25.1619 7.42889 24.8475C7.42889 21.6145 7.42889 18.3815 7.42889 15.1487ZM20.0034 30.1259C21.8484 30.1259 23.6954 30.1811 25.538 30.113C28.4271 30.0059 30.2042 28.2817 30.2716 25.3953C30.3552 21.7988 30.3552 18.1975 30.2716 14.6007C30.2042 11.7149 28.4259 9.95038 25.538 9.88904C21.8726 9.81153 18.2031 9.81214 14.5377 9.88904C11.6718 9.94916 9.88953 11.678 9.81171 14.532C9.71283 18.174 9.71283 21.8223 9.81171 25.4643C9.88953 28.318 11.6718 30.0068 14.538 30.113C16.3574 30.1808 18.1815 30.1259 20.0034 30.1259Z" fill="white"/>
<path d="M20 13.5933C16.4618 13.5933 13.5931 16.4616 13.5931 19.9998C13.5931 23.5383 16.4618 26.4067 20 26.4067C23.5385 26.4067 26.4069 23.5383 26.4069 19.9998C26.4069 16.4616 23.5385 13.5933 20 13.5933ZM20 24.2009C17.6797 24.2009 15.799 22.3201 15.799 19.9998C15.799 17.6796 17.6797 15.7988 20 15.7988C22.3203 15.7988 24.201 17.6796 24.201 19.9998C24.201 22.3201 22.3203 24.2009 20 24.2009Z" fill="white"/>
<path d="M28.3051 13.3012C28.3051 14.1429 27.6227 14.8253 26.781 14.8253C25.9393 14.8253 25.2567 14.1429 25.2567 13.3012C25.2567 12.4592 25.9393 11.7769 26.781 11.7769C27.6227 11.7769 28.3051 12.4592 28.3051 13.3012Z" fill="white"/>
</g>
</symbol>
<radialGradient id="paint0_radial" cx="0" cy="0" r="1" gradientUnits="userSpaceOnUse" gradientTransform="translate(8.19977 34.9568) scale(44.113)">
<stop stop-color="#FAE100"/>
<stop offset="0.0544" stop-color="#FADC04"/>
<stop offset="0.1167" stop-color="#FBCE0E"/>
<stop offset="0.1829" stop-color="#FCB720"/>
<stop offset="0.2514" stop-color="#FE9838"/>
<stop offset="0.3054" stop-color="#FF7950"/>
<stop offset="0.4922" stop-color="#FF1C74"/>
<stop offset="1" stop-color="#6C1CD1"/>
</radialGradient>
<linearGradient id="paint1_linear" x1="15.3416" y1="17.3794" x2="-52.4231" y2="-20.7382" gradientUnits="userSpaceOnUse">
<stop stop-color="#A1B5D8" stop-opacity="0"/>
<stop offset="0.3094" stop-color="#90A2BD" stop-opacity="0.309804"/>
<stop offset="0.7554" stop-color="#7C8B9C" stop-opacity="0.756863"/>
<stop offset="1" stop-color="#748290"/>
</linearGradient>
<linearGradient id="paint2_linear" x1="20" y1="35.31" x2="20" y2="41.545" gradientUnits="userSpaceOnUse">
<stop stop-color="#FAE100" stop-opacity="0"/>
<stop offset="0.3068" stop-color="#FCA800" stop-opacity="0.305882"/>
<stop offset="0.6275" stop-color="#FE7300" stop-opacity="0.627451"/>
<stop offset="0.8685" stop-color="#FF5200" stop-opacity="0.866667"/>
<stop offset="1" stop-color="#FF4500"/>
</linearGradient>
<linearGradient id="paint3_linear" x1="17.7244" y1="17.6679" x2="7.82505" y2="7.76858" gradientUnits="userSpaceOnUse">
<stop stop-color="#833AB4" stop-opacity="0"/>
<stop offset="1" stop-color="#833AB4"/>
</linearGradient>
<linearGradient id="paint4_linear" x1="27.414" y1="36.5852" x2="22.4731" y2="13.2922" gradientUnits="userSpaceOnUse">
<stop stop-color="#833AB4" stop-opacity="0"/>
<stop offset="1" stop-color="#833AB4"/>
</linearGradient>
<linearGradient id="paint5_linear" x1="29.2941" y1="29.2943" x2="9.44852" y2="9.44863" gradientUnits="userSpaceOnUse">
<stop stop-color="#833AB4" stop-opacity="0"/>
<stop offset="1" stop-color="#833AB4"/>
</linearGradient>
<linearGradient id="paint6_linear" x1="30.7661" y1="17.2863" x2="24.2036" y2="10.7237" gradientUnits="userSpaceOnUse">
<stop stop-color="#833AB4" stop-opacity="0"/>
<stop offset="1" stop-color="#833AB4"/>
</linearGradient>
<linearGradient id="paint7_linear" x1="27.9421" y1="12.1134" x2="11.7611" y2="28.2943" gradientUnits="userSpaceOnUse">
<stop stop-color="#833AB4"/>
<stop offset="0.0922" stop-color="#9C3495"/>
<stop offset="0.2927" stop-color="#DC2546"/>
<stop offset="0.392" stop-color="#FD1D1D"/>
<stop offset="0.5589" stop-color="#FC6831"/>
<stop offset="0.6887" stop-color="#FC9B40"/>
<stop offset="0.7521" stop-color="#FCAF45"/>
<stop offset="0.7806" stop-color="#FDB750"/>
<stop offset="0.8656" stop-color="#FECB6A"/>
<stop offset="0.9415" stop-color="#FFD87A"/>
<stop offset="1" stop-color="#FFDC80"/>
</linearGradient>
<clipPath id="clip0">
<rect width="40" height="40" fill="white"/>
</clipPath>

</defs>
</svg>
